<?xml version="1.0" standalone="no"?>
<!DOCTYPE svg PUBLIC "-//W3C//DTD SVG 20010904//EN"
 "http://www.w3.org/TR/2001/REC-SVG-20010904/DTD/svg10.dtd">
<svg version="1.0" xmlns="http://www.w3.org/2000/svg"
 width="512.000000pt" height="512.000000pt" viewBox="0 0 512.000000 512.000000"
 preserveAspectRatio="xMidYMid meet">
<metadata>
Created by potrace 1.11, written by Peter Selinger 2001-2013
</metadata>
<g transform="translate(0.000000,512.000000) scale(0.100000,-0.100000)"
fill="#000000" stroke="none">
<path d="M694 5108 c-4 -7 -3 -8 4 -4 7 4 12 2 12 -5 0 -10 3 -10 12 -1 17 17
33 15 18 -3 -7 -8 -9 -15 -4 -15 10 -1 -25 -23 -41 -27 -5 -1 -21 -4 -34 -7
-14 -3 -28 -9 -33 -14 -12 -12 1 -44 15 -35 6 3 7 1 3 -5 -5 -9 -13 -9 -26 -2
-25 13 -33 13 -24 -2 4 -7 -8 -3 -28 9 -36 21 -37 21 -33 1 3 -11 0 -28 -4
-37 -6 -9 -6 -23 -1 -32 6 -11 5 -16 -4 -16 -8 0 -12 10 -10 24 1 13 -2 20 -8
17 -5 -3 -7 -8 -4 -11 3 -3 -5 -14 -17 -23 -17 -14 -25 -16 -36 -7 -11 9 -13
9 -8 0 5 -8 0 -11 -13 -10 -23 1 -25 8 -9 24 8 8 8 13 0 18 -6 3 -11 3 -10 -2
4 -14 -13 -43 -21 -38 -5 3 -12 0 -16 -6 -4 -8 -3 -9 4 -5 7 4 12 3 12 -2 0
-6 -7 -13 -16 -16 -22 -9 -26 -8 -18 6 4 7 3 8 -4 4 -6 -4 -8 -14 -5 -23 4
-11 3 -14 -6 -9 -6 4 -11 4 -10 -1 3 -19 -2 -34 -10 -29 -18 11 -21 -27 -4
-53 11 -18 12 -22 2 -14 -8 6 -18 12 -23 13 -15 3 -26 -23 -15 -36 7 -8 6 -15
-2 -20 -8 -4 -9 -3 -5 4 4 7 3 12 -2 12 -17 0 -21 -13 -11 -34 10 -20 10 -20
-5 -2 -11 13 -12 23 -6 31 5 7 7 15 3 18 -3 4 -1 7 5 7 7 0 12 4 12 9 0 5 -13
3 -30 -5 -29 -15 -29 -16 -14 -40 15 -22 15 -24 0 -24 -10 0 -15 4 -12 8 3 5
-1 9 -9 9 -19 0 -19 -5 -1 -22 7 -8 17 -11 22 -7 5 4 3 0 -4 -9 -6 -9 -8 -20
-4 -24 4 -5 1 -5 -7 0 -10 6 -12 2 -6 -14 5 -15 2 -21 -10 -21 -9 0 -14 -4
-11 -9 3 -5 -1 -12 -10 -15 -8 -3 -12 -11 -8 -17 4 -7 3 -9 -3 -6 -15 9 -36
-19 -27 -35 5 -8 -1 -7 -17 3 -24 16 -25 16 -26 -2 -1 -10 3 -19 8 -19 6 0 7
6 3 13 -4 7 -3 9 2 4 5 -5 9 -12 9 -15 0 -4 4 -13 8 -19 5 -7 5 -13 0 -13 -4
0 -1 -5 7 -11 13 -9 12 -10 -3 -5 -15 5 -17 2 -13 -17 3 -12 3 -16 0 -9 -3 6
-10 9 -15 6 -6 -3 -5 -11 2 -20 6 -8 9 -17 5 -21 -3 -3 -6 -1 -6 6 0 7 -5 9
-10 6 -8 -5 -7 -11 1 -21 6 -7 15 -12 19 -9 5 3 11 1 14 -4 7 -11 -20 -9 -31
2 -4 5 -15 -2 -25 -15 -11 -14 -17 -17 -16 -8 2 8 -4 15 -14 15 -9 0 -20 4
-24 8 -4 4 -2 7 4 7 7 0 12 8 12 17 0 15 -2 14 -15 -3 -12 -16 -14 -257 -14
-1803 -1 -1641 1 -1785 16 -1796 13 -9 13 -14 3 -20 -9 -5 -11 -4 -6 3 4 7 3
12 -2 12 -11 0 -10 -97 1 -105 4 -3 5 -2 2 2 -3 3 0 12 6 20 6 7 7 13 2 13
-16 0 -12 38 5 45 11 4 23 -2 36 -17 10 -13 26 -22 35 -20 11 2 12 0 4 -5 -7
-5 -10 -17 -9 -28 2 -11 -2 -26 -8 -34 -8 -12 -8 -13 2 -7 16 10 13 -25 -3
-36 -6 -5 -6 -8 2 -8 6 0 10 -9 8 -20 -2 -11 0 -18 6 -15 5 4 9 1 9 -5 0 -7 7
-10 15 -6 15 6 48 -31 39 -46 -3 -4 3 -5 12 -1 14 5 16 3 10 -13 -18 -42 -19
-57 -6 -52 8 2 15 11 18 19 3 11 1 11 -8 -1 -9 -12 -11 -12 -8 -1 2 8 13 15
24 16 18 1 19 -2 10 -22 -6 -12 -18 -24 -26 -27 -8 -2 1 -3 21 -1 26 2 36 -1
36 -11 0 -9 -4 -11 -10 -5 -10 10 -47 3 -47 -11 0 -5 9 -4 20 2 11 6 20 7 20
3 0 -5 9 -14 21 -21 15 -10 24 -10 34 -2 9 8 15 8 20 0 4 -6 3 -9 -2 -8 -4 1
-18 -3 -30 -10 -14 -8 -24 -9 -28 -2 -3 5 -3 10 2 10 10 0 -19 20 -29 20 -5 0
-8 -5 -8 -11 0 -5 4 -7 10 -4 5 3 10 1 10 -4 0 -18 -5 -26 -13 -23 -5 1 -6 -2
-2 -8 5 -8 11 -8 20 0 10 8 17 6 28 -10 12 -18 19 -20 35 -11 14 7 23 8 27 1
6 -10 -1 -14 -18 -11 -5 1 -6 -3 -3 -8 4 -5 0 -12 -6 -14 -10 -4 -10 -6 -1 -6
7 -1 22 8 33 19 25 25 27 14 2 -13 -9 -11 -11 -17 -5 -13 21 12 53 15 53 5 0
-5 -4 -10 -10 -10 -5 -1 -15 -2 -22 -3 -6 0 -13 -8 -15 -16 -4 -13 -3 -13 6 0
9 13 11 13 11 -1 0 -9 7 -19 15 -23 9 -3 12 -12 8 -23 -5 -16 -4 -16 9 1 10
13 20 16 29 11 12 -8 12 -6 0 9 -8 9 -20 15 -27 12 -15 -6 -27 7 -17 17 11 12
63 -27 58 -43 -3 -10 3 -15 20 -16 14 -1 23 1 21 5 -2 3 7 7 21 8 l25 1 -28
-17 c-21 -13 -31 -15 -37 -7 -6 7 -7 6 -5 -3 2 -8 14 -15 26 -16 11 -1 18 3
15 8 -3 6 -1 7 5 3 7 -4 12 -2 12 5 0 7 3 10 6 7 11 -12 -16 -47 -31 -42 -8 4
-15 2 -15 -4 0 -11 25 -10 36 0 3 4 13 4 22 1 15 -4 15 -3 2 6 -8 6 -10 11 -4
11 6 0 23 -9 36 -20 14 -10 27 -17 30 -15 2 2 9 -4 15 -14 9 -14 8 -18 -3 -18
-7 0 -10 5 -7 10 4 7 -1 8 -13 3 -10 -4 -15 -4 -11 0 8 8 -11 34 -25 34 -5 0
-2 -10 6 -21 8 -12 12 -29 9 -38 -3 -10 -2 -12 4 -5 10 13 43 14 43 2 0 -5 7
-3 15 5 18 18 47 16 53 -4 2 -8 0 -10 -5 -4 -15 19 -30 14 -42 -13 -10 -24
-10 -25 3 -9 8 10 20 17 28 16 33 -4 39 1 28 21 -6 11 -7 20 -3 20 5 0 14 -13
21 -30 8 -16 18 -30 23 -30 6 0 8 4 4 9 -3 5 -1 12 4 15 5 4 12 2 16 -4 4 -6
12 -7 18 -3 8 4 7 1 -1 -9 -9 -11 -10 -18 -2 -23 5 -3 10 -1 10 5 0 20 17 1
22 -25 3 -13 1 -22 -3 -19 -5 3 -9 12 -9 20 0 15 -20 15 -33 -1 -5 -6 -6 -2
-3 8 3 10 2 15 -4 12 -5 -3 -18 3 -29 14 -19 19 -20 19 -18 1 1 -10 5 -16 9
-14 4 3 8 0 8 -6 0 -6 4 -9 8 -6 4 2 13 -4 20 -15 14 -22 4 -25 -24 -5 -18 13
-20 12 -21 -7 -1 -13 1 -17 5 -10 5 8 13 9 22 3 8 -5 772 -9 1792 -10 1436 0
1778 2 1778 12 0 8 3 9 8 3 4 -5 31 -10 60 -11 30 -1 48 2 41 7 -7 4 -17 5
-21 3 -7 -5 -12 10 -9 29 2 13 -17 7 -23 -8 -3 -8 -13 -14 -23 -14 -17 1 -17
2 0 6 22 6 22 12 0 30 -10 8 -12 11 -4 7 7 -4 23 -8 35 -8 11 -1 20 -7 19 -13
-1 -6 5 -10 15 -8 9 1 21 -3 25 -9 6 -7 7 -4 3 7 -5 15 5 22 27 18 5 -1 6 3 2
8 -3 6 -13 7 -23 4 -15 -6 -15 -5 -3 10 11 13 17 15 28 6 7 -7 16 -9 20 -5 3
3 1 6 -5 6 -6 0 -16 10 -22 23 -10 20 -10 20 3 5 16 -21 33 -23 43 -6 4 6 3 8
-3 5 -6 -4 -16 0 -23 8 -9 10 -9 15 -1 15 6 0 11 -5 11 -12 0 -6 3 -8 6 -5 4
3 16 1 27 -5 17 -8 19 -8 14 5 -5 13 1 15 32 14 28 -2 37 1 34 10 -3 7 -9 11
-13 8 -5 -3 -6 5 -2 17 5 21 5 21 13 1 10 -27 26 -37 35 -22 5 8 3 9 -6 4 -9
-6 -10 -2 -5 15 5 17 4 21 -5 15 -9 -5 -11 -4 -6 3 4 7 2 12 -3 12 -6 0 -11 4
-11 8 0 5 7 9 15 9 8 0 12 -4 9 -9 -3 -4 -1 -8 4 -8 6 0 12 6 15 14 3 8 15 14
26 13 15 -1 17 -4 9 -14 -12 -15 -22 -17 -13 -3 3 5 2 10 -3 10 -6 0 -12 -6
-15 -14 -4 -11 2 -14 24 -14 16 1 32 5 35 9 3 5 -3 6 -13 2 -14 -5 -16 -3 -6
7 14 15 6 43 -10 33 -6 -3 -7 -1 -3 6 10 15 32 -2 42 -32 l7 -22 8 22 c6 16
13 21 26 16 15 -6 16 -5 3 9 -13 14 -16 14 -26 0 -9 -13 -12 -12 -16 6 -4 13
-2 19 6 16 17 -7 50 32 40 47 -4 7 8 4 27 -8 26 -15 36 -17 36 -7 0 7 -3 11
-7 9 -4 -3 -16 5 -26 18 -15 17 -15 19 -2 8 9 -7 22 -10 27 -7 5 4 14 -2 20
-11 6 -10 11 -13 11 -7 0 13 -30 41 -39 36 -3 -2 -7 2 -9 10 -2 9 0 8 7 -2 6
-8 11 -11 11 -6 0 4 12 0 28 -10 22 -14 24 -14 14 -1 -11 13 -10 17 5 25 10 5
26 8 36 7 9 -2 15 1 11 6 -3 5 -9 7 -14 4 -4 -3 -11 2 -14 11 -3 9 -12 14 -19
11 -15 -6 -17 27 -2 40 4 5 5 3 2 -3 -4 -7 -1 -17 7 -23 17 -15 34 5 31 37 -1
13 3 26 8 29 6 3 7 1 3 -5 -4 -7 -2 -12 5 -12 9 0 9 -3 0 -14 -9 -11 -8 -15 5
-20 21 -8 24 -8 24 5 0 5 -4 8 -9 4 -6 -3 -9 4 -8 15 1 13 6 19 15 15 7 -2 11
-1 7 4 -3 5 7 14 22 20 26 10 27 11 3 7 -14 -2 -34 0 -45 5 -18 9 -18 9 3 5
19 -4 22 -1 18 17 -3 12 -3 17 0 10 3 -7 13 -9 22 -6 14 4 15 3 2 -6 -12 -8
-11 -10 7 -8 12 0 20 4 17 8 -2 4 0 10 6 14 6 4 8 10 5 15 -10 16 -12 79 -2
77 5 -1 12 4 15 12 2 8 0 11 -5 8 -5 -3 -10 0 -10 8 0 11 4 12 14 4 7 -6 13
-8 13 -4 0 4 6 2 13 -4 10 -8 14 -7 14 4 0 7 -3 14 -6 13 -20 -2 -31 4 -31 16
0 8 -5 16 -12 18 -8 3 -6 7 5 11 9 3 16 3 16 -1 -3 -20 3 -32 16 -32 8 0 15 5
15 11 0 5 -5 7 -10 4 -6 -3 -10 -1 -10 4 0 6 5 11 10 11 13 0 13 36 -1 62 -7
12 -7 18 -1 14 6 -3 13 0 16 6 3 7 3 2 -1 -12 -5 -22 -4 -23 10 -11 13 10 14
17 5 35 -10 19 -9 20 5 8 16 -14 20 -55 3 -45 -5 4 -6 1 -1 -7 5 -8 4 -11 -1
-7 -6 3 -11 -4 -11 -16 -2 -15 0 -18 6 -8 6 8 11 9 15 3 4 -6 -2 -15 -11 -21
-16 -9 -16 -10 4 -8 12 0 21 4 21 7 -2 20 4 30 14 24 7 -4 8 -3 4 4 -4 6 -14
8 -22 5 -14 -5 -14 -3 -3 15 8 13 16 17 20 11 4 -6 6 1 7 16 0 19 -3 23 -9 14
-6 -10 -9 -10 -9 -2 0 6 5 15 10 18 7 4 10 608 10 1796 -1 1660 -2 1790 -17
1777 -14 -11 -16 -11 -10 4 4 12 2 15 -9 11 -10 -4 -12 0 -8 11 5 13 10 13 27
5 17 -9 19 -9 11 0 -6 7 -19 14 -28 15 -10 1 -22 9 -27 17 -5 9 -9 10 -9 2 0
-6 4 -15 10 -18 6 -3 10 -11 10 -17 0 -6 -8 -4 -18 5 -15 14 -19 15 -19 2 0
-8 5 -11 10 -8 6 4 7 1 2 -7 -6 -9 -4 -11 5 -5 9 5 11 4 6 -3 -5 -9 -12 -8
-26 0 -14 9 -16 14 -7 20 7 4 8 8 2 8 -5 0 -4 5 2 11 6 6 9 18 6 27 -5 11 -2
13 8 7 11 -6 11 -5 2 5 -6 7 -10 18 -9 24 2 6 1 8 -1 3 -3 -4 -9 -5 -14 -1 -5
3 -5 14 2 25 6 12 8 23 5 27 -3 3 -6 1 -6 -4 0 -5 -12 -10 -27 -11 l-28 -1 25
14 25 15 -24 -7 c-16 -4 -21 -3 -17 5 4 6 14 11 22 11 10 0 9 5 -6 20 -11 11
-23 20 -27 20 -3 0 -15 7 -25 16 -16 16 -18 16 -24 0 -3 -9 -11 -16 -16 -16
-6 0 -6 5 1 14 6 8 11 18 10 22 -1 5 0 11 1 14 7 18 5 49 -4 47 -5 -1 -11 4
-12 11 -1 6 -2 15 -3 18 0 4 -12 -1 -25 -10 -24 -15 -25 -15 -21 4 4 22 -10
27 -19 8 -3 -8 -5 -7 -3 2 1 9 -2 15 -8 15 -5 0 -9 -8 -9 -18 1 -10 -1 -15 -4
-12 -4 3 -7 17 -8 31 0 13 1 22 4 19 3 -2 11 3 19 13 13 15 14 15 9 0 -6 -21
35 -50 55 -38 7 5 10 13 5 17 -5 4 -11 2 -13 -5 -3 -6 -9 -9 -14 -6 -6 3 -5
11 2 20 8 10 8 14 0 14 -6 0 -11 -4 -11 -10 0 -5 -4 -10 -9 -10 -5 0 -8 8 -7
18 0 9 -5 16 -11 15 -13 -3 -16 7 -14 37 0 10 -1 11 -5 2 -3 -6 -10 -9 -15 -6
-6 3 -5 11 2 20 10 12 9 13 -4 8 -8 -3 -18 -12 -21 -20 -4 -10 -2 -12 6 -8 7
4 8 3 4 -4 -4 -7 -11 -12 -17 -12 -13 0 -6 35 11 56 13 16 12 16 -11 -1 -16
-12 -24 -26 -21 -35 5 -13 4 -13 -9 0 -17 17 -21 50 -6 50 5 0 6 -8 2 -17 -5
-14 -4 -15 6 -6 9 9 9 16 1 26 -7 8 -11 16 -9 18 1 2 -5 -3 -14 -11 -9 -8 -14
-22 -12 -30 4 -13 4 -13 -6 0 -7 11 -6 22 6 40 l16 25 -27 -25 c-16 -14 -30
-20 -34 -15 -7 10 -27 17 -49 18 -7 0 -10 4 -7 8 2 5 11 6 19 2 11 -4 13 -1 9
12 -6 15 -4 15 14 4 11 -7 19 -16 16 -20 -2 -4 0 -10 6 -14 6 -4 9 4 8 19 -2
17 -8 25 -18 23 -8 -1 -14 4 -12 12 3 12 0 12 -12 1 -17 -14 -22 0 -6 16 6 6
4 10 -8 12 -31 3 -47 8 -67 19 -11 6 -23 11 -27 12 -5 1 -7 4 -5 9 1 4 6 6 10
4 5 -1 6 2 2 8 -5 7 -11 8 -19 1 -17 -14 -56 -9 -56 7 0 7 5 10 12 6 7 -5 8
-3 3 6 -6 10 -11 9 -22 -5 -18 -26 -16 -35 7 -30 11 2 20 0 20 -6 0 -5 3 -8 8
-8 21 4 32 -3 32 -18 0 -15 -2 -15 -9 -4 -13 21 -43 22 -57 3 -11 -16 -12 -15
-11 3 1 12 -3 19 -11 17 -8 -1 -11 2 -7 8 3 5 1 10 -4 10 -6 0 -11 -5 -11 -12
0 -6 -2 -9 -5 -6 -8 8 6 39 15 33 5 -3 12 0 16 6 4 7 3 9 -4 5 -5 -3 -12 0
-15 6 -3 10 -8 10 -18 -1 -12 -12 -12 -13 1 -6 16 9 16 10 -18 -35 -2 -3 -3 2
-2 10 4 26 0 40 -10 40 -5 0 -7 -8 -3 -17 4 -12 0 -11 -11 5 -10 12 -23 22
-31 22 -19 0 -28 17 -14 26 8 4 9 3 5 -4 -4 -7 -1 -12 8 -12 9 0 16 5 16 12 0
6 6 4 13 -7 9 -11 19 -15 27 -10 9 6 11 4 6 -6 -4 -8 -1 -6 7 3 8 10 17 15 20
11 4 -3 7 -1 7 5 0 15 -6 15 -30 2 -13 -7 -21 -7 -26 2 -4 6 -3 8 4 4 6 -3 13
-2 17 4 4 6 -607 10 -1834 9 -1337 0 -1842 -3 -1847 -11z m99 -23 c-4 -18 -3
-18 14 3 18 23 20 23 34 5 13 -16 13 -17 -3 -4 -15 11 -18 11 -19 0 -1 -8 -1
-18 0 -22 1 -5 -3 -6 -9 -2 -5 3 -10 0 -10 -7 -1 -7 -6 -3 -13 10 -7 12 -16
20 -20 16 -3 -4 -2 -15 4 -25 7 -15 6 -17 -6 -13 -8 4 -15 1 -15 -6 0 -6 -5
-8 -12 -4 -8 5 -9 2 -4 -11 5 -15 4 -16 -9 -5 -12 10 -15 10 -16 -1 0 -9 -2
-10 -5 -3 -8 19 -43 5 -38 -14 5 -14 4 -14 -6 1 -6 9 -15 15 -21 12 -5 -4 -9
-1 -9 4 0 11 5 13 38 14 9 1 20 6 24 12 5 6 8 4 8 -5 1 -12 3 -12 11 2 5 9 16
15 23 12 10 -4 13 1 12 13 -4 24 8 39 32 39 14 0 18 -6 15 -21z m3461 17 c3
-5 -1 -9 -9 -9 -8 0 -12 4 -9 9 3 4 7 8 9 8 2 0 6 -4 9 -8z m48 -36 c7 4 8 2
4 -4 -4 -6 -13 -9 -21 -6 -8 4 -12 11 -8 17 5 8 8 7 11 -1 2 -7 9 -9 14 -6z
m-3448 -8 c-3 -4 -9 -8 -15 -8 -5 0 -9 4 -9 8 0 5 7 9 15 9 8 0 12 -4 9 -9z
m3486 -23 c14 -18 13 -19 -1 -8 -9 7 -19 10 -22 6 -4 -3 -7 -2 -7 4 0 9 12 26
14 21 1 -2 8 -12 16 -23z m-3570 -15 c0 -5 -5 -10 -11 -10 -5 0 -7 5 -4 10 3
6 8 10 11 10 2 0 4 -4 4 -10z m-201 -51 c-6 -3 -10 -10 -9 -15 1 -5 -4 -10
-12 -12 -8 -2 -9 -1 -3 5 13 10 13 23 1 41 -7 11 -4 11 13 1 12 -8 16 -16 10
-20z m3986 10 c-4 -5 -12 -9 -18 -8 -9 0 -8 2 1 6 6 2 9 10 6 15 -4 7 -2 8 5
4 6 -4 9 -12 6 -17z m51 -18 c0 -11 -6 -17 -13 -14 -7 3 -10 9 -7 14 3 5 0 9
-5 9 -6 0 -11 -4 -11 -10 0 -5 -5 -10 -10 -10 -6 0 -6 7 1 19 15 22 45 17 45
-8z m-4106 -55 c0 -2 -8 -10 -17 -17 -16 -13 -17 -12 -4 4 13 16 21 21 21 13z
m-56 -29 c10 -9 12 -17 6 -17 -6 0 -13 7 -16 15 -4 8 -10 12 -16 9 -5 -3 -4
-11 3 -20 8 -10 8 -14 0 -14 -6 0 -11 5 -11 10 0 6 -5 10 -11 10 -5 0 -7 -4
-4 -10 3 -5 1 -10 -5 -10 -6 0 -9 -4 -6 -9 3 -5 -1 -12 -10 -15 -8 -3 -13 -10
-9 -15 3 -5 1 -12 -4 -16 -6 -3 -8 3 -6 15 2 11 -1 20 -7 20 -16 0 21 38 43
45 11 4 17 10 14 15 -9 15 22 5 39 -13z m4265 -61 c-3 -3 -11 5 -18 17 -13 21
-12 21 5 5 10 -10 16 -20 13 -22z m95 -25 c-6 -6 -24 19 -24 34 1 6 7 1 15 -9
8 -11 12 -22 9 -25z m-4474 9 c-8 -5 -17 -7 -19 -4 -3 3 1 9 9 14 8 5 17 7 19
4 3 -3 -1 -9 -9 -14z m-20 -60 c0 -5 -2 -10 -4 -10 -3 0 -8 5 -11 10 -3 6 -1
10 4 10 6 0 11 -4 11 -10z m-60 -4 c0 -11 -19 -15 -25 -6 -3 5 1 10 9 10 9 0
16 -2 16 -4z m4637 -13 c-4 -3 -2 -12 4 -20 6 -7 8 -13 3 -13 -5 0 -2 -5 6
-10 12 -7 10 -9 -7 -7 -16 1 -19 5 -12 13 7 8 6 14 -1 19 -5 3 -10 1 -10 -4 0
-6 -5 -11 -12 -11 -6 0 -3 9 7 20 10 11 20 20 23 20 3 0 2 -3 -1 -7z m-4583
-21 c3 -5 -1 -9 -9 -9 -8 0 -12 4 -9 9 3 4 7 8 9 8 2 0 6 -4 9 -8z m-61 -52
c-3 -12 -8 -19 -11 -16 -5 6 5 36 12 36 2 0 2 -9 -1 -20z m4737 -70 c0 -6 -5
-10 -11 -10 -5 0 -7 5 -4 10 5 8 -13 14 -36 12 -3 -1 -6 5 -6 13 0 12 5 11 29
-1 15 -8 28 -19 28 -24z m-75 11 c3 -5 2 -12 -3 -15 -5 -3 -9 1 -9 9 0 17 3
19 12 6z m-4740 -50 c3 -5 2 -12 -3 -15 -5 -3 -9 1 -9 9 0 17 3 19 12 6z
m4845 -21 c0 -5 -5 -10 -11 -10 -5 0 -7 5 -4 10 3 6 8 10 11 10 2 0 4 -4 4
-10z m9 -34 c9 -10 8 -16 -3 -25 -8 -7 -12 -19 -9 -27 3 -8 1 -14 -4 -14 -5 0
-9 11 -9 24 0 14 4 22 8 20 4 -3 8 1 8 10 0 8 -6 17 -12 19 -8 4 -9 6 -2 6 6
1 17 -5 23 -13z m7 -108 c4 -7 4 -10 -1 -6 -4 4 -15 2 -24 -5 -14 -11 -14 -10
-2 6 16 20 18 21 27 5z m79 -11 c5 5 4 1 -3 -9 -10 -13 -10 -17 0 -22 7 -3 2
-3 -12 0 -24 5 -24 4 -6 -10 11 -9 15 -16 9 -16 -13 0 -39 30 -27 30 5 0 3 4
-4 8 -7 5 -10 16 -6 26 6 15 8 15 24 1 9 -8 21 -12 25 -8z m-5071 -14 c-3 9
-1 17 5 17 6 0 10 -3 10 -7 -1 -5 -1 -15 0 -22 1 -12 4 -12 13 -3 15 15 28 15
28 1 0 -5 -5 -7 -10 -4 -6 3 -14 -4 -19 -17 -7 -17 -10 -19 -10 -5 -1 9 -5 17
-11 17 -5 0 -10 -8 -10 -17 0 -15 -2 -16 -10 -3 -6 9 -5 17 2 21 7 4 7 9 -1
13 -6 4 -11 12 -11 19 0 6 7 2 15 -9 13 -16 14 -16 9 -1z m5006 3 c0 -2 -7 -7
-16 -10 -8 -3 -12 -2 -9 4 6 10 25 14 25 6z m8 -28 c-2 -6 -12 -12 -21 -14 -9
-1 -15 2 -11 7 3 5 10 7 15 4 5 -4 9 -1 9 4 0 6 3 11 6 11 3 0 4 -5 2 -12z
m-4958 -22 c0 -3 -4 -8 -10 -11 -5 -3 -10 -1 -10 4 0 6 5 11 10 11 6 0 10 -2
10 -4z m-42 -28 c-2 -7 4 -11 12 -10 8 2 11 0 7 -4 -15 -15 -33 -11 -34 7 -1
11 2 19 8 19 5 0 8 -6 7 -12z m5056 -4 c5 -13 4 -14 -7 -6 -8 7 -17 9 -20 5
-4 -3 -7 -1 -7 5 0 18 27 14 34 -4z m-5077 -59 c0 -8 -4 -12 -9 -9 -5 3 -6 10
-3 15 9 13 12 11 12 -6z m38 -3355 c3 -5 1 -10 -4 -10 -6 0 -11 5 -11 10 0 6
2 10 4 10 3 0 8 -4 11 -10z m5042 -22 c2 -18 0 -20 -7 -8 -9 13 -14 7 -11 -12
0 -4 -6 -5 -14 -2 -12 5 -10 10 8 25 12 10 22 18 22 19 1 0 2 -10 2 -22z
m-5057 -18 c0 -5 -4 -10 -10 -10 -5 0 -10 5 -10 10 0 6 5 10 10 10 6 0 10 -4
10 -10z m4991 -23 c-10 -9 -11 -8 -5 6 3 10 9 15 12 12 3 -3 0 -11 -7 -18z
m-4976 3 c-3 -5 -12 -10 -18 -10 -7 0 -6 4 3 10 19 12 23 12 15 0z m46 -37
c13 -16 12 -17 -3 -4 -10 7 -18 15 -18 17 0 8 8 3 21 -13z m4914 -11 c-3 -3
-11 0 -18 7 -9 10 -8 11 6 5 10 -3 15 -9 12 -12z m-4895 -46 c0 -3 -4 -8 -10
-11 -5 -3 -10 -1 -10 4 0 6 5 11 10 11 6 0 10 -2 10 -4z m0 -41 c11 -13 10
-14 -4 -9 -9 3 -16 10 -16 15 0 13 6 11 20 -6z m-15 -36 c-4 -5 -1 -9 4 -9 6
0 11 -7 11 -16 0 -27 -24 -9 -25 19 -1 14 2 24 7 21 4 -3 6 -10 3 -15z m69
-75 c3 -8 2 -12 -4 -9 -6 3 -10 10 -10 16 0 14 7 11 14 -7z m4785 13 c-2 -1
-13 -9 -24 -17 -19 -14 -19 -14 -6 3 7 9 18 17 24 17 6 0 8 -1 6 -3z m16 -26
c3 -5 1 -12 -5 -16 -5 -3 -10 -1 -10 5 0 6 -5 8 -12 4 -7 -4 -8 -3 -4 4 9 14
23 15 31 3z m-4755 -17 c0 -8 -19 -13 -24 -6 -3 5 1 9 9 9 8 0 15 -2 15 -3z
m74 -153 c3 -5 0 -14 -8 -20 -10 -9 -17 -7 -27 6 -8 9 -9 14 -2 10 6 -4 14 -3
18 3 8 12 12 13 19 1z m46 -7 c0 -8 -19 -13 -24 -6 -3 5 1 9 9 9 8 0 15 -2 15
-3z m4509 3 c-2 -1 -12 -9 -22 -16 -15 -12 -17 -12 -11 3 3 9 13 16 22 16 8 0
13 -1 11 -3z m-133 -72 c-1 -8 -5 -17 -8 -21 -5 -4 -4 16 1 34 3 9 9 -1 7 -13z
m-4181 -95 c3 -5 1 -10 -4 -10 -6 0 -11 5 -11 10 0 6 2 10 4 10 3 0 8 -4 11
-10z m80 -60 c3 -5 1 -10 -4 -10 -6 0 -11 5 -11 10 0 6 2 10 4 10 3 0 8 -4 11
-10z m3885 4 c0 -8 -19 -13 -24 -6 -3 5 1 9 9 9 8 0 15 -2 15 -3z m-3784 -19
c-1 -8 -5 -17 -8 -21 -5 -4 -4 16 1 34 3 9 9 -1 7 -13z m3584 -25 c0 -5 -2
-10 -4 -10 -3 0 -8 5 -11 10 -3 6 -1 10 4 10 6 0 11 -4 11 -10z m101 -22 c-13
-10 -18 -18 -12 -18 7 0 10 -4 6 -10 -3 -5 -14 -1 -25 10 -11 11 -25 18 -32
16 -7 -1 -10 -1 -6 1 4 3 10 4 14 3 4 -1 11 4 15 12 7 10 9 9 9 -5 0 -10 5
-15 10 -12 6 4 8 11 5 16 -3 5 2 6 11 2 13 -5 15 -3 9 7 -6 9 -4 11 5 5 10 -6
8 -12 -9 -27z m-3610 -5 c13 -16 12 -17 -3 -4 -17 13 -22 21 -14 21 2 0 10 -8
17 -17z m3499 -8 c0 -1 -10 -10 -22 -21 -14 -12 -18 -13 -10 -3 6 9 10 18 7
21 -3 2 2 5 10 5 8 0 15 -1 15 -2z m-3480 -35 c6 -11 8 -20 6 -20 -3 0 -10 9
-16 20 -6 11 -8 20 -6 20 3 0 10 -9 16 -20z m35 10 c-3 -5 -12 -10 -18 -10 -7
0 -6 4 3 10 19 12 23 12 15 0z m-85 -20 c0 -5 -2 -10 -4 -10 -3 0 -8 5 -11 10
-3 6 -1 10 4 10 6 0 11 -4 11 -10z"/>
<path d="M365 4849 c-4 -6 -5 -12 -2 -15 2 -3 7 2 10 11 7 17 1 20 -8 4z"/>
<path d="M5067 4359 c7 -7 15 -10 18 -7 3 3 -2 9 -12 12 -14 6 -15 5 -6 -5z"/>
<path d="M690 5080 c0 -5 5 -10 11 -10 5 0 7 5 4 10 -3 6 -8 10 -11 10 -2 0
-4 -4 -4 -10z"/>
<path d="M4420 5080 c0 -5 5 -10 11 -10 5 0 7 5 4 10 -3 6 -8 10 -11 10 -2 0
-4 -4 -4 -10z"/>
<path d="M556 5018 c3 -5 10 -6 15 -3 13 9 11 12 -6 12 -8 0 -12 -4 -9 -9z"/>
<path d="M587 5017 c-3 -7 3 -13 13 -13 10 0 16 6 13 13 -3 7 -9 13 -13 13 -4
0 -10 -6 -13 -13z"/>
<path d="M500 5000 c-9 -6 -10 -10 -3 -10 6 0 15 5 18 10 8 12 4 12 -15 0z"/>
<path d="M508 4973 c7 -3 16 -2 19 1 4 3 -2 6 -13 5 -11 0 -14 -3 -6 -6z"/>
<path d="M479 4958 c-1 -7 -1 -16 0 -20 0 -5 -3 -8 -9 -8 -5 0 -10 -5 -10 -12
0 -9 3 -9 12 0 12 12 22 52 13 52 -3 0 -6 -6 -6 -12z"/>
<path d="M270 4782 c0 -5 7 -9 15 -9 8 0 12 4 9 9 -3 4 -9 8 -15 8 -5 0 -9 -4
-9 -8z"/>
<path d="M4913 4745 c0 -8 4 -12 9 -9 5 3 6 10 3 15 -9 13 -12 11 -12 -6z"/>
<path d="M4934 4682 c3 -6 -2 -15 -11 -21 -16 -9 -16 -10 -2 -11 20 0 33 27
17 36 -6 4 -8 3 -4 -4z"/>
<path d="M187 4663 c5 -12 3 -14 -7 -8 -8 5 -11 4 -6 -3 3 -6 2 -13 -4 -17 -6
-4 -8 -11 -5 -16 4 -5 2 -9 -4 -9 -5 0 -11 3 -14 8 -2 4 -2 1 -1 -6 2 -7 -6
-17 -19 -22 -12 -5 -16 -9 -9 -9 7 -1 10 -6 7 -11 -4 -6 -12 -7 -18 -4 -9 5
-8 3 0 -6 10 -11 18 -8 43 19 17 17 28 37 24 43 -5 8 -2 9 10 5 10 -4 15 -3
11 4 -4 5 -2 16 4 23 9 10 8 15 -3 19 -11 4 -13 1 -9 -10z"/>
<path d="M4954 4649 c-3 -6 -2 -15 3 -20 5 -5 9 -1 9 11 0 23 -2 24 -12 9z"/>
<path d="M64 4499 c-4 -7 -3 -9 3 -6 6 4 16 0 23 -8 9 -11 9 -15 1 -16 -26 -3
-30 -4 -38 -13 -4 -5 -3 -6 4 -3 6 4 14 1 16 -5 4 -9 12 -5 26 12 18 23 19 35
3 35 -4 0 -12 4 -19 8 -6 4 -15 2 -19 -4z"/>
<path d="M5095 4451 c-3 -5 -2 -12 3 -15 5 -3 9 1 9 9 0 17 -3 19 -12 6z"/>
<path d="M10 4446 c0 -2 7 -7 16 -10 8 -3 12 -2 9 4 -6 10 -25 14 -25 6z"/>
<path d="M56 4414 c-20 -19 -20 -20 -1 -27 8 -4 17 -1 21 5 4 7 3 8 -4 4 -7
-4 -12 -3 -12 3 0 5 8 15 18 20 9 6 12 11 5 11 -6 0 -19 -7 -27 -16z"/>
<path d="M30 756 c0 -9 5 -16 11 -16 5 0 8 -4 5 -8 -7 -12 22 -52 37 -51 9 0
9 2 0 6 -7 2 -13 9 -13 14 0 6 5 7 11 3 8 -4 8 0 0 15 -7 11 -16 21 -21 21 -6
0 -9 5 -7 11 1 6 -4 14 -10 16 -7 3 -13 -2 -13 -11z m40 -36 c0 -5 -2 -10 -4
-10 -3 0 -8 5 -11 10 -3 6 -1 10 4 10 6 0 11 -4 11 -10z"/>
<path d="M30 703 c0 -5 10 -18 23 -29 l22 -19 -20 25 c-11 14 -21 27 -22 29
-2 2 -3 0 -3 -6z"/>
<path d="M56 638 c3 -5 10 -6 15 -3 13 9 11 12 -6 12 -8 0 -12 -4 -9 -9z"/>
<path d="M5013 618 c-17 -22 -21 -44 -12 -59 8 -12 10 -12 8 1 -3 32 2 49 14
46 6 -1 9 -1 4 1 -4 3 -5 9 -1 14 8 14 -2 11 -13 -3z"/>
<path d="M119 554 c-8 -11 -9 -15 -1 -10 6 4 12 3 12 -3 0 -5 -5 -11 -12 -13
-9 -3 -9 -6 0 -12 7 -4 12 -2 12 4 0 6 4 9 9 5 16 -9 21 11 8 29 -12 17 -14
17 -28 0z"/>
<path d="M158 513 c-10 -2 -18 -9 -18 -14 0 -6 8 -5 20 1 11 6 20 13 20 15 0
3 -1 4 -2 4 -2 -1 -11 -3 -20 -6z"/>
<path d="M4879 393 c-7 -10 -9 -15 -5 -11 5 4 15 3 23 -3 9 -9 13 -8 13 0 0 6
-5 11 -11 11 -5 0 -7 5 -4 10 10 17 -2 11 -16 -7z"/>
<path d="M4745 270 c-20 -22 -7 -32 22 -17 17 10 18 14 8 24 -10 9 -17 8 -30
-7z m25 -4 c0 -2 -7 -7 -16 -10 -8 -3 -12 -2 -9 4 6 10 25 14 25 6z"/>
<path d="M405 200 c10 -11 20 -20 22 -20 2 0 -2 9 -9 20 -7 11 -17 20 -22 20
-5 0 -1 -9 9 -20z"/>
<path d="M4626 158 c3 -4 9 -8 15 -8 5 0 9 4 9 8 0 5 -7 9 -15 9 -8 0 -12 -4
-9 -9z"/>
<path d="M500 139 c0 -5 4 -8 9 -4 6 3 14 -3 20 -12 6 -10 11 -13 11 -7 0 12
-20 34 -32 34 -4 0 -8 -5 -8 -11z"/>
<path d="M4541 111 c-10 -7 -7 -9 12 -8 14 1 23 5 20 10 -6 9 -15 9 -32 -2z"/>
<path d="M733 75 c0 -8 4 -12 9 -9 5 3 6 10 3 15 -9 13 -12 11 -12 -6z"/>
</g>
</svg>
